<svg id="logosandtypes_com" xmlns="http://www.w3.org/2000/svg" viewBox="0 0 150 150.2"><path d="M0 .2h150v150H0V.2z" fill="none"/><path d="M109 34.9l10.2-17.7c3-5.2 1.3-11.8-3.8-14.8-5.2-3-11.8-1.3-14.8 3.8 0 .1-.1.1-.1.2L90.3 24.1c-26.1-8.3-54.1 6.1-62.4 32.3-3.3 10.3-3.1 21.3.5 31.5l18.9-32.6c8.9-15.6 28.7-21 44.3-12.1s21 28.7 12.1 44.3-28.7 21-44.3 12.1c-.1 0-.1-.1-.2-.1L70 80.8c5.2 3 11.8 1.2 14.8-4S86 65 80.8 62 69 60.8 66 66l-34.5 59.6c-2.9 5.2-1 11.8 4.3 14.7 5.1 2.8 11.5 1.1 14.5-3.9l10.2-17.7c26.2 8.3 54.1-6.2 62.3-32.4 5.7-18.3.4-38.4-13.8-51.4z"/></svg>