<svg height='300px' width='300px'  fill="#000000" xmlns="http://www.w3.org/2000/svg" viewBox="0 0 64 64" x="0px" y="0px"><title>whey-proteins-powder-cup-healthcare</title><g><path d="M59,51H45.579l1.366-24H47a3,3,0,0,0,3-3V20a3,3,0,0,0-3-3H46V5a3,3,0,0,0-3-3H39a3,3,0,0,0-2.816,2H21a4,4,0,0,0-4,4v5.67A9.9,9.9,0,0,0,16.051,17H15a3,3,0,0,0-3,3v4a3,3,0,0,0,3,3h.082l2.762,32.256a2.989,2.989,0,0,0,3,2.744H40a5.006,5.006,0,0,0,5-5H59a3,3,0,0,0,0-6ZM36,7V8H26a10.007,10.007,0,0,0-1,.051V8a3.959,3.959,0,0,0-.555-2H36Zm2,1h6v4.025A10,10,0,0,0,38,8.2Zm0-3a1,1,0,0,1,1-1h4a1,1,0,0,1,1,1V6H38ZM21,6a2,2,0,0,1,2,2v.461a10.006,10.006,0,0,0-4,2.41V8A2,2,0,0,1,21,6Zm5,4H36a8.013,8.013,0,0,1,7.938,7H18.062A8.013,8.013,0,0,1,26,10ZM14,24V20a1,1,0,0,1,1-1H47a1,1,0,0,1,1,1v4a1,1,0,0,1-1,1H15A1,1,0,0,1,14,24Zm30.942,3-.228,4H25V29H23v2H17.431l-.343-4ZM19.836,59.084,17.6,33H23V54h4V52H25V48h4V46H25V42h2V40H25V36h4V34H25V33H44.6l-.968,17h-.1L41.16,46.438a5,5,0,0,0-8.32,0L30.465,50H30a1,1,0,0,0-1,1v6a4.948,4.948,0,0,0,1.026,3H20.84A1,1,0,0,1,19.836,59.084ZM41.131,50H32.869L34.5,47.547a3,3,0,0,1,4.992,0ZM43,57a3,3,0,0,1-3,3H34a3,3,0,0,1-3-3V52H43v5Zm16-2H45V53H59a1,1,0,0,1,0,2Z"></path></g></svg>